<?xml version="1.0" encoding="utf-8"?>
<!-- Generator: Adobe Illustrator 26.0.0, SVG Export Plug-In . SVG Version: 6.00 Build 0)  -->
<svg version="1.1" id="Capa_1" xmlns="http://www.w3.org/2000/svg" xmlns:xlink="http://www.w3.org/1999/xlink" x="0px" y="0px"
	 viewBox="0 0 80 80" style="enable-background:new 0 0 80 80;" xml:space="preserve">
<style type="text/css">
	.st0{fill:#565656;}
</style>
<g>
	<path class="st0" d="M71.5,30.9c-3.7-0.1-7.4,0.2-11-0.1c-1.6-0.2-3.6-1.1-4.5-2.4c-4.3-5.9-8.3-12.1-12.5-18.1
		c-2.3-3.3-4.4-3.3-6.7-0.1c-2.1,2.8-4,5.8-6,8.7c-2.6,3.8-4.5,9-8.1,11c-3.7,2-9.2,0.8-13.9,0.9c-4,0.1-5.3,1.6-4.3,5.3
		c2.6,9.5,5.2,19.1,7.9,28.6c1,3.6,3.3,5.4,7.2,5.3c6.9-0.1,13.9,0,20.8,0c6.8,0,13.6,0,20.4,0c3.7,0,6-1.8,6.9-5.1
		c2.8-9.6,5.4-19.3,8-29C76.6,32.5,75.2,31,71.5,30.9z M40.2,57c-3.4,0.1-6.6-3-6.6-6.4c0-3.4,3.2-6.6,6.5-6.5
		c3.4,0,6.5,3.3,6.4,6.6C46.4,53.9,43.4,56.9,40.2,57z M30.8,30.6c3.2-4.6,6-8.7,9.2-13.3c3.1,4.6,6,8.7,9.1,13.3
		C42.9,30.6,37.2,30.6,30.8,30.6z"/>
</g>
</svg>
