<svg xmlns="http://www.w3.org/2000/svg" width="334.305" height="289.623" viewBox="0 0 334.305 289.623">
  <g id="cestaSVG" transform="translate(-4.178 -7.812)">
    <path id="Trazado_6" data-name="Trazado 6" d="M317.694,115.33c-17.231-.466-34.461.931-51.227-.466-7.451-.931-16.765-5.123-20.956-11.177C225.486,76.212,206.858,47.339,187.3,19.4c-10.711-15.368-20.491-15.368-31.2-.466-9.78,13.039-18.628,27.01-27.942,40.516-12.108,17.7-20.956,41.913-37.721,51.227C73.2,119.987,47.59,114.4,25.7,114.865c-18.628.466-24.682,7.451-20.025,24.682,12.108,44.241,24.216,88.948,36.79,133.189C47.125,289.5,57.836,297.883,76,297.417c32.133-.466,64.732,0,96.865,0h95c17.231,0,27.942-8.383,32.133-23.75,13.039-44.707,25.148-89.879,37.256-135.052C341.444,122.782,334.925,115.8,317.694,115.33ZM171.931,236.877c-15.834.466-30.736-13.971-30.736-29.8s14.9-30.736,30.27-30.27c15.834,0,30.27,15.368,29.8,30.736C200.8,222.44,186.833,236.411,171.931,236.877ZM128.156,113.933C143.058,92.511,156.1,73.418,171,52c14.437,21.422,27.942,40.516,42.378,61.938Z" transform="translate(0 0)" fill="#f6d62f"/>
  </g>
</svg>
