<svg id="iconoYoutube" xmlns="http://www.w3.org/2000/svg" width="72" height="72" viewBox="0 0 72 72">
  <path id="Trazado_2" data-name="Trazado 2" d="M36,72h0A36,36,0,0,0,72,36h0A36,36,0,0,0,36,0h0A36,36,0,0,0,0,36H0A36,36,0,0,0,36,72Z" fill="#f6d62f" fill-rule="evenodd"/>
  <path id="Trazado_3" data-name="Trazado 3" d="M31.044,42.27l0-13.582L44.012,35.5ZM59.52,26.334s-.47-3.331-1.908-4.8A6.831,6.831,0,0,0,52.8,19.489C46.086,19,36.011,19,36.011,19h-.021s-10.075,0-16.792.489a6.834,6.834,0,0,0-4.811,2.047c-1.439,1.467-1.907,4.8-1.907,4.8A73.637,73.637,0,0,0,12,34.158v3.668a73.6,73.6,0,0,0,.48,7.824s.468,3.331,1.907,4.8c1.827,1.926,4.225,1.866,5.293,2.067C23.52,52.885,36,53,36,53s10.086-.015,16.8-.5a6.841,6.841,0,0,0,4.809-2.048c1.438-1.467,1.908-4.8,1.908-4.8A73.6,73.6,0,0,0,60,37.826V34.158a73.637,73.637,0,0,0-.48-7.824Z" fill="#fff" fill-rule="evenodd"/>
</svg>
