<svg xmlns="http://www.w3.org/2000/svg" width="274" height="274" viewBox="0 0 274 274">
  <g id="Instagram" transform="translate(-0.384 -0.384)">
    <g id="Instagram_1_">
      <rect id="Rectángulo_1" data-name="Rectángulo 1" width="274" height="274" rx="137" transform="translate(0.384 0.384)" fill="#f6d62f"/>
      <path id="Instagram-2" data-name="Instagram" d="M154.648,43.6a11.221,11.221,0,1,1-11.221-11.221A11.221,11.221,0,0,1,154.648,43.6ZM93.511,124.681a31.17,31.17,0,1,1,31.17-31.17A31.17,31.17,0,0,1,93.511,124.681Zm0-79.189a48.019,48.019,0,1,0,48.019,48.019A48.019,48.019,0,0,0,93.511,45.492Zm0-28.642c24.969,0,27.926.095,37.786.545,9.117.416,14.069,1.939,17.364,3.22a28.977,28.977,0,0,1,10.752,7,28.953,28.953,0,0,1,7,10.752c1.28,3.295,2.8,8.247,3.22,17.364.45,9.861.545,12.818.545,37.787s-.095,27.926-.545,37.786c-.416,9.117-1.939,14.069-3.22,17.364a30.974,30.974,0,0,1-17.748,17.748c-3.295,1.28-8.247,2.8-17.364,3.22-9.86.45-12.817.545-37.786.545s-27.928-.095-37.787-.545c-9.117-.416-14.069-1.939-17.364-3.22a28.977,28.977,0,0,1-10.752-7,28.971,28.971,0,0,1-7-10.752c-1.28-3.295-2.8-8.246-3.22-17.364-.45-9.861-.545-12.818-.545-37.786s.095-27.926.545-37.787c.416-9.117,1.939-14.069,3.22-17.364a28.977,28.977,0,0,1,7-10.752,28.953,28.953,0,0,1,10.752-7c3.295-1.28,8.247-2.8,17.364-3.22C65.585,16.945,68.542,16.85,93.511,16.85Zm0-16.85C68.116,0,64.93.108,54.957.563,45,1.017,38.205,2.6,32.258,4.909A45.823,45.823,0,0,0,15.7,15.7,45.823,45.823,0,0,0,4.909,32.258C2.6,38.207,1.017,45,.563,54.957.108,64.93,0,68.116,0,93.511s.108,28.581.563,38.554c.454,9.953,2.035,16.75,4.347,22.7A45.822,45.822,0,0,0,15.7,171.327a45.842,45.842,0,0,0,16.563,10.786c5.948,2.311,12.745,3.892,22.7,4.347,9.974.454,13.159.563,38.554.563s28.581-.108,38.554-.563c9.953-.454,16.75-2.035,22.7-4.347a47.817,47.817,0,0,0,27.349-27.349c2.311-5.948,3.892-12.745,4.347-22.7.454-9.974.563-13.159.563-38.554s-.108-28.581-.563-38.554c-.454-9.953-2.035-16.75-4.347-22.7A45.842,45.842,0,0,0,171.327,15.7,45.842,45.842,0,0,0,154.764,4.909c-5.948-2.311-12.745-3.892-22.7-4.347C122.092.108,118.907,0,93.511,0Z" transform="translate(43.681 43.681)" fill="#fff" fill-rule="evenodd"/>
    </g>
  </g>
</svg>
