<svg xmlns="http://www.w3.org/2000/svg" width="303.924" height="306.433" viewBox="0 0 303.924 306.433">
  <g id="whatsapp-icono" transform="translate(-12.993 -10.938)">
    <path id="Trazado_4" data-name="Trazado 4" d="M316.911,154.89c-.374,39.533-10.538,70.46-31.676,97.335-22.7,28.87-52.253,47.2-88.418,54.622-27.935,5.674-55.121,3.18-81.809-6.485a126.225,126.225,0,0,1-17.272-7.794,5.62,5.62,0,0,0-4.988-.436q-37.88,12.253-75.885,24.318c-1.122.374-2.619,1.434-3.492.624-1-1,.249-2.494.624-3.679,5.051-15.027,10.1-30.117,15.214-45.144,3.118-9.166,6.111-18.27,9.353-27.373a6.654,6.654,0,0,0-.748-6.36,144.5,144.5,0,0,1-14.529-34.981,148.983,148.983,0,0,1,31.8-137.429,147.94,147.94,0,0,1,77.257-46.89A148.949,148.949,0,0,1,261.1,44.024,150.092,150.092,0,0,1,307.5,108.5C312.858,122.4,317.1,145.163,316.911,154.89ZM51.407,279.411c15.464-4.988,30.242-9.727,44.895-14.529a5.468,5.468,0,0,1,5.175.624,106.129,106.129,0,0,0,17.9,9.353,119.8,119.8,0,0,0,63.1,8.917c26.688-3.429,50.133-14.154,69.837-32.8,24.817-23.508,38.1-52.315,39.283-86.36,1.122-33.359-9.6-62.666-31.988-87.545-21.263-23.632-47.95-37.1-79.439-40.468-27.373-2.931-53,2.993-76.7,17.21A122.525,122.525,0,0,0,56.895,103.7c-11.91,23.133-15.963,47.7-12.533,73.453a119.568,119.568,0,0,0,20.764,53.437A5.362,5.362,0,0,1,66,236.013c-2.307,6.36-4.365,12.783-6.547,19.143C56.832,263.012,54.276,270.869,51.407,279.411Z" fill="#f6d62f"/>
    <path id="Trazado_5" data-name="Trazado 5" d="M141,171.566c.312-14.84,5.55-25.877,15.464-34.669A13.767,13.767,0,0,1,168,133.405a28.26,28.26,0,0,0,5.612.312,6.644,6.644,0,0,1,7.046,4.552c4.178,10.85,8.231,21.7,12.284,32.611,1.372,3.741-1,6.672-2.993,9.353a80.737,80.737,0,0,1-7.857,8.792c-2.806,2.868-3.18,4.489-1.247,7.981,11.286,20.515,27.124,36.29,48.636,46.017.748.312,1.5.748,2.245,1.122,2.868,1.309,5.425,1,7.607-1.5,3.991-4.677,8.355-8.979,12.034-13.9,2.432-3.242,4.115-3.8,7.794-2.182,10.974,4.739,21.263,10.725,31.738,16.524,1.933,1.06,2.619,2.681,2.557,4.926-.561,18.394-11.1,28-29.618,32.237-8.979,2.058-17.272-.187-25.5-3.18-17.272-6.235-33.921-13.593-47.888-25.939a175.565,175.565,0,0,1-29.182-33.11c-6.36-9.478-12.97-18.769-16.649-29.805C142.5,182.353,140.937,176.367,141,171.566Z" transform="translate(-48.188 -46.045)" fill="#f6d62f"/>
  </g>
</svg>
