<svg xmlns="http://www.w3.org/2000/svg" width="520" height="520" viewBox="0 0 520 520">
  <g id="Dona" transform="translate(-90 -90)">
    <path id="Trazado_4" data-name="Trazado 4" d="M541.98,450.96l-15.1-8.95a17.675,17.675,0,0,0-24.44,6.58l-15.03,26.86A42.411,42.411,0,0,1,442,496.31l-30.02-6.06a42.893,42.893,0,0,0-37.93,10.85l-17.78,16.78a26.07,26.07,0,0,1-40.95-6.79L304,489.64a22.843,22.843,0,0,0-32.58-8.53l-12.5,8.06a28.5,28.5,0,0,1-34.13-2.43l-32.4-28.14a23.746,23.746,0,0,0-29.81-1.07,16.564,16.564,0,0,1-10.23,3.33c-6.78-.11-18.93-.29-32.26-.44C161.25,545.97,248.73,605,350,605c111.38,0,206.02-71.44,240.76-170.97l-21.45,15.63A24.857,24.857,0,0,1,541.98,450.96Z" fill="#efc4ac" stroke="#000" stroke-linecap="round" stroke-linejoin="round" stroke-miterlimit="10" stroke-width="10"/>
    <path id="Trazado_5" data-name="Trazado 5" d="M350,95C209.17,95,95,209.17,95,350a254.032,254.032,0,0,0,25.09,110.44c13.34.14,25.48.33,32.26.44a16.524,16.524,0,0,0,10.23-3.33,23.732,23.732,0,0,1,29.81,1.07l32.4,28.14a28.5,28.5,0,0,0,34.13,2.43l12.5-8.06A22.843,22.843,0,0,1,304,489.66l11.32,21.44a26.077,26.077,0,0,0,40.95,6.79l17.78-16.78a42.913,42.913,0,0,1,37.93-10.85L442,496.32a42.411,42.411,0,0,0,45.41-20.86l15.03-26.86a17.685,17.685,0,0,1,24.44-6.58l15.1,8.95a24.857,24.857,0,0,0,27.33-1.3l21.45-15.63A254.5,254.5,0,0,0,605,350C605,209.17,490.83,95,350,95Z" fill="#f9809a" stroke="#000" stroke-linecap="round" stroke-linejoin="round" stroke-miterlimit="10" stroke-width="10"/>
    <path id="Trazado_7" data-name="Trazado 7" d="M89.38,0A89.38,89.38,0,1,1,0,89.38,89.38,89.38,0,0,1,89.38,0Z" transform="translate(263.34 263.97)" fill="#9c0720" stroke="#000" stroke-linecap="round" stroke-width="10"/>
    <path id="Trazado_6" data-name="Trazado 6" d="M301.37,326.6a57.925,57.925,0,0,1,102.71,0" fill="none" stroke="#000" stroke-linecap="round" stroke-linejoin="round" stroke-miterlimit="10" stroke-width="10"/>
  </g>
</svg>
