<?xml version="1.0" ?><svg id="Layer_1" style="enable-background:new 0 0 700 700;" version="1.1" viewBox="0 0 700 700" xml:space="preserve" xmlns="http://www.w3.org/2000/svg" xmlns:xlink="http://www.w3.org/1999/xlink"><style type="text/css">
	.st0{fill:#F9809A;stroke:#000000;stroke-width:10;stroke-miterlimit:10;}
	.st1{fill:#EFC4AC;stroke:#000000;stroke-width:10;stroke-miterlimit:10;}
</style><g><path class="st0" d="M458.11,494.45c0.41,6.12,0.61,12.25,0.61,18.44c0,21.01-2.38,41.46-6.87,61.11   c-4.89,21.4,20.81,36.62,37.08,21.88c29.62-26.85,53.34-60.06,69.01-97.49"/><path class="st0" d="M203.06,136.85c-39.33,15.59-74.2,40.06-102.16,70.91c-14.78,16.31,0.33,42.08,21.79,37.19   c19.66-4.48,40.14-6.85,61.18-6.85c6.46,0,12.86,0.2,19.19,0.68"/><path class="st1" d="M309.74,283.07c-17.52-14.33-66.75-23.19-91.73-26.89c-8.62-1.28-14.94-8.67-14.94-17.39l0,0V136.85v-3.44   c0-5.8,2.79-11.32,7.64-14.51c16.89-11.12,66.06-31.16,188.21-12.13"/><path class="st1" d="M591.57,297.52c15.58,127.32-6.87,177.04-18.86,193.8c-3.39,4.74-9.02,7.33-14.84,7.1l-105.59-4.19   c-8.57-0.34-15.64-6.75-16.74-15.26c-3.16-24.46-10.89-72.7-24.5-90.79"/><path class="st0" d="M308.42,319.13l71.63,68.97c6.26,6.03,15.62,7.53,23.45,3.74l174.83-84.44c25.78-12.45,34.7-44.91,18.6-68.58   C573.71,204.68,530.3,156,451.32,105.69c-24.03-15.3-56.05-6.12-68.09,19.7L304,295.38C300.25,303.43,302.02,312.97,308.42,319.13z   "/><circle class="st0" cx="434.53" cy="146.94" r="9.34"/><circle class="st0" cx="493.43" cy="202.38" r="9.34"/><circle class="st0" cx="552.74" cy="262.9" r="9.34"/><circle class="st0" cx="497.22" cy="262.9" r="9.34"/><circle class="st0" cx="434.53" cy="202.38" r="9.34"/></g></svg>