<?xml version="1.0" ?><svg id="Layer_1" style="enable-background:new 0 0 700 700;" version="1.1" viewBox="0 0 700 700" xml:space="preserve" xmlns="http://www.w3.org/2000/svg" xmlns:xlink="http://www.w3.org/1999/xlink"><style type="text/css">
	.st0{fill:#F9809A;stroke:#000000;stroke-width:10;stroke-miterlimit:10;}
	.st1{fill:#EFC4AC;stroke:#000000;stroke-width:10;stroke-miterlimit:10;}
</style><g><path class="st0" d="M476.52,247.21c0-6.01,0.5-11.9,1.23-17.72c-7.71,1.3-15.57,2.13-23.65,2.13   c-76.55,0-138.75-60.78-141.36-136.69C189.47,113.63,95,220.05,95,348.54c0,141.68,114.85,256.53,256.53,256.53   c128.2,0,234.42-94.05,253.47-216.91C532.96,381.52,476.52,320.98,476.52,247.21z"/><path class="st1" d="M419.79,318.79c0.8-2.57,1.35-5.24,1.35-8.07c0-15.12-12.25-27.37-27.37-27.37s-27.37,12.25-27.37,27.37   c0,13.19,9.33,24.18,21.74,26.78c-0.8,2.57-1.35,5.24-1.35,8.07c0,15.12,12.25,27.37,27.37,27.37s27.37-12.25,27.37-27.37   C441.53,332.38,432.2,321.39,419.79,318.79z"/><path class="st1" d="M259.64,235.76c-9.97,0-18.85,4.37-25.07,11.21c-3.52-11.58-14.15-20.06-26.88-20.06   c-15.59,0-28.22,12.64-28.22,28.22c0,12.42,8.07,22.84,19.21,26.62c-8.02,6.22-13.27,15.84-13.27,26.77   c0,18.77,15.22,33.99,33.99,33.99s33.99-15.22,33.99-33.99c0-1.87-0.26-3.67-0.55-5.46c2.2,0.45,4.47,0.68,6.8,0.68   c18.77,0,33.99-15.22,33.99-33.99C293.63,250.97,278.41,235.76,259.64,235.76z"/><path class="st1" d="M253.44,452.96c-0.43,0-0.83,0.09-1.24,0.13c-3.5-9.49-12.21-16.34-22.7-17.2c1.07-2.89,1.74-5.97,1.74-9.23   c0-14.67-11.89-26.56-26.56-26.56s-26.56,11.89-26.56,26.56c0,13.93,10.77,25.23,24.41,26.34c-1.07,2.89-1.74,5.97-1.74,9.23   c0,14.67,11.89,26.56,26.56,26.56c6.25,0,11.92-2.25,16.46-5.86c2.72,1.95,6.03,3.13,9.63,3.13c9.14,0,16.55-7.41,16.55-16.55   S262.58,452.96,253.44,452.96z"/><path class="st1" d="M449.33,465.96c-0.08-20.73-16.9-37.52-37.65-37.52c-20.8,0-37.66,16.86-37.66,37.66   c0,0.46,0.05,0.9,0.07,1.35c-13.94,5.52-23.82,19.09-23.82,35c0,20.8,16.86,37.66,37.66,37.66c10.15,0,19.35-4.04,26.12-10.57   c6.77,6.53,15.97,10.57,26.12,10.57c20.8,0,37.66-16.86,37.66-37.66C477.84,484.81,465.7,470.05,449.33,465.96z"/></g></svg>