<?xml version="1.0" ?><svg id="Layer_1" style="enable-background:new 0 0 700 700;" version="1.1" viewBox="0 0 700 700" xml:space="preserve" xmlns="http://www.w3.org/2000/svg" xmlns:xlink="http://www.w3.org/1999/xlink"><style type="text/css">
	.st0{fill:#F9809A;stroke:#000000;stroke-width:10;stroke-linecap:round;stroke-linejoin:round;stroke-miterlimit:10;}
	.st1{fill:#EFC4AC;stroke:#000000;stroke-width:10;stroke-linecap:round;stroke-linejoin:round;stroke-miterlimit:10;}
	.st2{fill:none;stroke:#000000;stroke-width:10;stroke-linecap:round;stroke-linejoin:round;stroke-miterlimit:10;}
</style><g><polyline class="st0" points="268.39,383.89 350.89,605 442.42,381  "/><ellipse class="st0" cx="440.3" cy="171.16" rx="76.16" ry="76.16" transform="matrix(0.7071 -0.7071 0.7071 0.7071 7.9325 361.4707)"/><circle class="st0" cx="259.7" cy="171.16" r="76.16"/><circle class="st1" cx="350.58" cy="171.16" r="76.16"/><path class="st1" d="M438.49,339.24c6.64-4.69,12.76-10,18.43-15.8c23.67-24.53,38.03-58.06,37.42-94.78l-70.48,1.17l-141.98,2.36   L213,233.32c0.76,45.52,24.22,85.3,59.5,108.67"/><path class="st0" d="M442.42,381l-174.03,2.89c-11.55,0.19-21.06-9.01-21.26-20.56l0,0c-0.19-11.55,9.01-21.06,20.56-21.26   l174.03-2.89c11.55-0.19,21.06,9.01,21.26,20.56l0,0C463.18,371.29,453.97,380.81,442.42,381z"/><path class="st2" d="M296.6,191.47c-2.59-5.9-4.07-12.36-4.18-19.19c-0.46-27.75,21.63-50.65,49.38-51.11   c6.24-0.1,12.26,0.93,17.82,2.91"/></g></svg>