<svg xmlns="http://www.w3.org/2000/svg" width="65.978" height="50" viewBox="0 0 65.978 50">
  <g id="PisadasArriba" transform="translate(-281.037 52.786) rotate(-90)">
    <path id="Pisadas" d="M15.4,281.038a8.612,8.612,0,0,0-5.956,2.853c-.011.018-.021.026-.031.044a31.935,31.935,0,0,0-5.305,9.556H9.171a16.3,16.3,0,0,1,2.523-4.168c.964-1.118,1.865-2.05,3.4-2.008a3.264,3.264,0,0,1,2.223.992,6.077,6.077,0,0,1,1.23,2.011,17.771,17.771,0,0,1,.865,3.173h4.638a47.822,47.822,0,0,0-2.062-7.131c-1.375-3.739-4.071-5.39-6.583-5.322Zm24.767,8.71c-2.511-.068-5.209,1.6-6.586,5.325a33.3,33.3,0,0,0-2.07,7.138h4.57a19.147,19.147,0,0,1,.962-3.719,6.078,6.078,0,0,1,1.23-2.011,3.256,3.256,0,0,1,2.234-1c1.528-.04,2.426.9,3.388,2.011a16.51,16.51,0,0,1,2.63,4.414c.041.1.073.208.113.308h4.816a32,32,0,0,0-5.305-9.564c-.014-.009-.028-.022-.042-.031a8.587,8.587,0,0,0-5.939-2.865Zm-25.205.645c-.316.022-.661.346-1.069.809a13.935,13.935,0,0,0-2.161,3.634,13.771,13.771,0,0,0-.3,10.517s0,0,0,.009c.473,1.341,1.209,2.249,2.407,2.257a2.244,2.244,0,0,0,2.35-1.338c1.106-2.675,1.251-6.538.738-10.195a21.834,21.834,0,0,0-1.069-4.683c-.294-.752-.581-1.034-.9-1.012ZM3.317,296.386a21.836,21.836,0,0,0-.5,5.826h4.9a17.137,17.137,0,0,1,.478-5.826Zm16.546,0a29.77,29.77,0,0,1,.173,5.826h4.87a33.906,33.906,0,0,0-.337-5.826Zm20.644,2.243c-.31.044-.549.375-.778.944a21.8,21.8,0,0,0-1.069,4.68c-.512,3.653-.365,7.523.738,10.2.846,1.815,2.646,1.575,3.739.7a11.614,11.614,0,0,0,1.015-1.612s0,0,0-.009a13.771,13.771,0,0,0-.3-10.517,13.936,13.936,0,0,0-2.149-3.634c-.509-.56-.889-.8-1.2-.752ZM3.2,305.1a18.765,18.765,0,0,0,1.066,3.45,11.078,11.078,0,0,0,8.487,7.056c3.778.61,8.006-1.1,10.551-5.687a1.382,1.382,0,0,0,.062-.139,19.318,19.318,0,0,0,1.284-4.68H19.6a14.684,14.684,0,0,1-.732,2.33,5.488,5.488,0,0,1-5.322,3.046,5.179,5.179,0,0,1-3.111-1.423,7.519,7.519,0,0,1-1.668-2.585,14.154,14.154,0,0,1-.492-1.369Zm27.8,0a33.9,33.9,0,0,0-.334,5.825h4.946a28.533,28.533,0,0,1,.062-5.825Zm16.529,0a16.717,16.717,0,0,1,.3,5.825h4.926a21.851,21.851,0,0,0-.506-5.825ZM30.923,313.82a15.7,15.7,0,0,0,1.346,4.81c2.545,4.582,6.77,6.294,10.548,5.684a11.054,11.054,0,0,0,8.5-7.064,18.764,18.764,0,0,0,1.058-3.43H47.13c-.1.274-.19.55-.305.823v.009a7.514,7.514,0,0,1-1.666,2.576,5.18,5.18,0,0,1-3.1,1.408,5.066,5.066,0,0,1-5.314-2.981,19.149,19.149,0,0,1-.611-1.838Zm-17.188,6.318a17.642,17.642,0,0,0-4.084.384,4.456,4.456,0,0,0-3.184,1.966c-.008.009-.015.022-.023.031a12.837,12.837,0,0,0-.781,8.863c.77,3.042,2.841,5.954,6.318,6.518a9.605,9.605,0,0,0,5.761-.1,6.939,6.939,0,0,0,4.095-5.088,19.171,19.171,0,0,0,.5-6.51,7.244,7.244,0,0,0-1.719-4.423A5.871,5.871,0,0,0,17.7,320.51a22.209,22.209,0,0,0-3.965-.373Zm28.09,8.721a21.837,21.837,0,0,0-3.968.373c-3.072.429-4.318,3.065-4.626,5.687a19.157,19.157,0,0,0,.5,6.507,6.946,6.946,0,0,0,4.084,5.1,9.608,9.608,0,0,0,5.752.1c3.492-.554,5.565-3.469,6.337-6.519a12.836,12.836,0,0,0-.781-8.863c-.007-.018-.015-.027-.022-.044a4.443,4.443,0,0,0-3.184-1.954,17.479,17.479,0,0,0-4.092-.385Zm-26.093,1.406a1.448,1.448,0,1,1-.158,2.89h-2.9a1.448,1.448,0,0,1-.15-2.884,1.32,1.32,0,0,1,.15,0h2.9c.053,0,.106,0,.158,0Zm24.456,8.682h2.887a1.449,1.449,0,1,1,0,2.9H40.188A1.449,1.449,0,1,1,40.188,338.946Z" transform="translate(0 0)" fill="#f6d62f"/>
  </g>
</svg>
