<?xml version="1.0" ?><svg id="Layer_1" style="enable-background:new 0 0 700 700;" version="1.1" viewBox="0 0 700 700" xml:space="preserve" xmlns="http://www.w3.org/2000/svg" xmlns:xlink="http://www.w3.org/1999/xlink"><style type="text/css">
	.st0{fill:#F9809A;stroke:#000000;stroke-width:10;stroke-miterlimit:10;}
	.st1{fill:#EFC4AC;stroke:#000000;stroke-width:10;stroke-miterlimit:10;}
	.st2{fill:none;stroke:#000000;stroke-width:10;stroke-linecap:round;stroke-linejoin:round;stroke-miterlimit:10;}
</style><g><path class="st0" d="M403.61,593.61H115.3c-11.21,0-20.3-9.09-20.3-20.3V126.69c0-11.21,9.09-20.3,20.3-20.3h288.31   c11.21,0,20.3,9.09,20.3,20.3v446.63C423.91,584.52,414.82,593.61,403.61,593.61z"/><path class="st1" d="M443.36,414.37h135.27c12.9,0,23.31-10.48,23.31-23.31v-34.5c0-12.9-10.41-23.31-23.31-23.31H443.36"/><path class="st1" d="M443.36,495.48h135.27c12.9,0,23.31-10.48,23.31-23.31v-34.5c0-12.9-10.41-23.31-23.31-23.31H443.36"/><path class="st1" d="M443.36,576.59H581.7c12.9,0,23.31-10.48,23.31-23.31v-34.5c0-12.9-10.41-23.31-23.31-23.31h-3.06H443.36"/><polyline class="st2" points="190.39,149.85 385.28,345.96 190.39,544.48  "/><polyline class="st2" points="321.14,149.85 126.24,345.96 321.14,544.48  "/><line class="st2" x1="126.24" x2="388.31" y1="215.22" y2="479.72"/><line class="st2" x1="388.31" x2="126.24" y1="212.8" y2="479.72"/></g></svg>